<svg height='100px' width='100px'  fill="#ffffff" xmlns="http://www.w3.org/2000/svg" xmlns:xlink="http://www.w3.org/1999/xlink" version="1.1" x="0px" y="0px" viewBox="0 0 30 31" style="enable-background:new 0 0 30 31;" xml:space="preserve"><g><path d="M13.592,6.964c-0.693-0.102-1.379-0.298-2.026-0.604c-1.032-0.49-2.086-0.592-3.015-0.2   c-2.367,0.995-3.025,4.803-1.47,8.504c1.556,3.702,4.736,5.896,7.104,4.901c0.285-0.119,0.604-0.119,0.89,0   c2.367,0.993,5.549-1.199,7.104-4.901c1.556-3.701,0.897-7.509-1.47-8.504c-0.931-0.392-1.983-0.29-3.017,0.201   c-0.767,0.362-1.579,0.576-2.403,0.653c0.022-0.149,0.047-0.305,0.1-0.459c0.094-0.378,0.254-0.765,0.456-1.129   c0.389-0.735,0.981-1.357,1.454-1.771c0.238-0.205,0.449-0.361,0.595-0.459c0.146-0.103,0.202-0.127,0.219-0.141l-1.135-1.639   c0.019-0.012-0.125,0.093-0.299,0.251c-0.181,0.158-0.416,0.39-0.681,0.684c-0.424,0.479-0.91,1.142-1.281,1.905   c0.305-0.926-0.047-2.038-0.954-2.727c-1.916-1.455-4.36-1.612-6.021-1.502C7.536,0.043,7.319,0.211,7.22,0.438   c-0.101,0.228-0.059,0.455,0.1,0.555c1.065,0.661,2.526,1.9,3.722,4.127c0.475,0.888,1.541,0.886,2.406,0.479   C13.551,5.949,13.608,6.399,13.592,6.964z M14.526,4.682c-0.001-0.002-0.002-0.004-0.003-0.006   c0.009-0.013,0.017-0.024,0.022-0.039C14.54,4.652,14.532,4.666,14.526,4.682z"></path><path d="M30,21.001H2c-1.104,0-2,2.238-2,5s0.896,5,2,5h28v-0.692c-0.596-0.865-1-2.46-1-4.308s0.404-3.442,1-4.308V21.001z    M27.334,29.001H2.53c-0.228-0.464-0.53-1.494-0.53-3s0.303-2.536,0.53-3h24.805c-0.219,0.908-0.334,1.928-0.334,3   S27.116,28.093,27.334,29.001z"></path></g></svg>